<mxfile host="app.diagrams.net" modified="2023-09-25T02:17:29.035Z" agent="Mozilla/5.0 (Windows NT 10.0; Win64; x64) AppleWebKit/537.36 (KHTML, like Gecko) Chrome/118.0.0.0 Safari/537.36" version="21.8.2" etag="N89fUsifJOkU0-9Xi4q9" type="github">
  <diagram name="第 1 页" id="fLy-VoWSQ5p9lqGweMZK">
    <mxGraphModel>
      <root>
        <mxCell id="0" />
        <mxCell id="1" parent="0" />
      </root>
    </mxGraphModel>
  </diagram>
</mxfile>
